HIERARCHY
ROOT hip
{
  OFFSET 0 0 0
  CHANNELS 6 Xposition Yposition Zposition Zrotation Yrotation Xrotation
  JOINT abdomen
  {
    OFFSET 0 20.6881 -0.73152
    CHANNELS 3 Zrotation Xrotation Yrotation
    JOINT chest
    {
      OFFSET 0 11.7043 -0.48768
      CHANNELS 3 Zrotation Xrotation Yrotation
      JOINT neck
      {
        OFFSET 0 22.1894 -2.19456
        CHANNELS 3 Zrotation Xrotation Yrotation
        JOINT head
        {
          OFFSET -0.24384 7.07133 1.2192
          CHANNELS 3 Zrotation Xrotation Yrotation
          JOINT leftEye
          {
            OFFSET 4.14528 8.04674 8.04672
            CHANNELS 3 Zrotation Xrotation Yrotation
            End Site
            {
              OFFSET 1 0 0
            }
          }
          JOINT rightEye
          {
            OFFSET -3.6576 8.04674 8.04672
            CHANNELS 3 Zrotation Xrotation Yrotation
            End Site
            {
              OFFSET 1 0 0
            }
          }
        }
      }
      JOINT rCollar
      {
        OFFSET -2.68224 19.2634 -4.8768
        CHANNELS 3 Zrotation Xrotation Yrotation
        JOINT rShldr
        {
          OFFSET -8.77824 -1.95073 1.46304
          CHANNELS 3 Zrotation Xrotation Yrotation
          JOINT rForeArm
          {
            OFFSET -28.1742 -1.7115 0.48768
            CHANNELS 3 Zrotation Xrotation Yrotation
            JOINT rHand
            {
              OFFSET -22.5879 0.773209 7.07136
              CHANNELS 3 Zrotation Xrotation Yrotation
              JOINT rThumb1
              {
                OFFSET -1.2192 -0.487915 3.41376
                CHANNELS 3 Zrotation Xrotation Yrotation
                JOINT rThumb2
                {
                  OFFSET -3.37035 -0.52449 3.41376
                  CHANNELS 3 Zrotation Xrotation Yrotation
                  End Site
                  {
                    OFFSET -1.78271 -1.18214 1.43049
                  }
                }
              }
              JOINT rIndex1
              {
                OFFSET -7.75947 0.938293 5.60832
                CHANNELS 3 Zrotation Xrotation Yrotation
                JOINT rIndex2
                {
                  OFFSET -2.54057 -0.884171 1.56538
                  CHANNELS 3 Zrotation Xrotation Yrotation
                  End Site
                  {
                    OFFSET -1.62519 -0.234802 1.16502
                  }
                }
              }
              JOINT rMid1
              {
                OFFSET -8.24714 1.18213 3.41376
                CHANNELS 3 Zrotation Xrotation Yrotation
                JOINT rMid2
                {
                  OFFSET -3.10165 -0.590103 1.0647
                  CHANNELS 3 Zrotation Xrotation Yrotation
                  End Site
                  {
                    OFFSET -2.48547 -0.328903 0.83742
                  }
                }
              }
              JOINT rRing1
              {
                OFFSET -8.82822 0.546677 1.51678
                CHANNELS 3 Zrotation Xrotation Yrotation
                JOINT rRing2
                {
                  OFFSET -2.60934 -0.819778 -0.0198488
                  CHANNELS 3 Zrotation Xrotation Yrotation
                  End Site
                  {
                    OFFSET -2.33842 -0.294052 0.168128
                  }
                }
              }
              JOINT rPinky1
              {
                OFFSET -8.27202 -0.0477905 -0.4584
                CHANNELS 3 Zrotation Xrotation Yrotation
                JOINT rPinky2
                {
                  OFFSET -1.82734 -0.647385 -0.700984
                  CHANNELS 3 Zrotation Xrotation Yrotation
                  End Site
                  {
                    OFFSET -1.69225 -0.51767 -0.607171
                  }
                }
              }
            }
          }
        }
      }
      JOINT lCollar
      {
        OFFSET 2.68224 19.2634 -4.8768
        CHANNELS 3 Zrotation Xrotation Yrotation
        JOINT lShldr
        {
          OFFSET 8.77824 -1.95073 1.46304
          CHANNELS 3 Zrotation Xrotation Yrotation
          JOINT lForeArm
          {
            OFFSET 28.1742 -1.7115 0.48768
            CHANNELS 3 Zrotation Xrotation Yrotation
            JOINT lHand
            {
              OFFSET 22.5879 0.773209 7.07136
              CHANNELS 3 Zrotation Xrotation Yrotation
              JOINT lThumb1
              {
                OFFSET 1.2192 -0.487915 3.41376
                CHANNELS 3 Zrotation Xrotation Yrotation
                JOINT lThumb2
                {
                  OFFSET 3.37035 -0.52449 3.41376
                  CHANNELS 3 Zrotation Xrotation Yrotation
                  End Site
                  {
                    OFFSET 1.78271 -1.18214 1.43049
                  }
                }
              }
              JOINT lIndex1
              {
                OFFSET 7.75947 0.938293 5.60832
                CHANNELS 3 Zrotation Xrotation Yrotation
                JOINT lIndex2
                {
                  OFFSET 2.54057 -0.884171 1.56538
                  CHANNELS 3 Zrotation Xrotation Yrotation
                  End Site
                  {
                    OFFSET 1.62519 -0.234802 1.16502
                  }
                }
              }
              JOINT lMid1
              {
                OFFSET 8.24714 1.18213 3.41376
                CHANNELS 3 Zrotation Xrotation Yrotation
                JOINT lMid2
                {
                  OFFSET 3.10165 -0.590103 1.0647
                  CHANNELS 3 Zrotation Xrotation Yrotation
                  End Site
                  {
                    OFFSET 2.48547 -0.328903 0.83742
                  }
                }
              }
              JOINT lRing1
              {
                OFFSET 8.82822 0.546677 1.51678
                CHANNELS 3 Zrotation Xrotation Yrotation
                JOINT lRing2
                {
                  OFFSET 2.60934 -0.819778 -0.0198488
                  CHANNELS 3 Zrotation Xrotation Yrotation
                  End Site
                  {
                    OFFSET 2.33842 -0.294052 0.168128
                  }
                }
              }
              JOINT lPinky1
              {
                OFFSET 8.27202 -0.0477905 -0.4584
                CHANNELS 3 Zrotation Xrotation Yrotation
                JOINT lPinky2
                {
                  OFFSET 1.82734 -0.647385 -0.700984
                  CHANNELS 3 Zrotation Xrotation Yrotation
                  End Site
                  {
                    OFFSET 1.69225 -0.51767 -0.607171
                  }
                }
              }
            }
          }
        }
      }
    }
  }
  JOINT rButtock
  {
    OFFSET -8.77824 4.35084 1.2192
    CHANNELS 3 Zrotation Xrotation Yrotation
    JOINT rThigh
    {
      OFFSET 0 -1.70687 -2.19456
      CHANNELS 3 Zrotation Xrotation Yrotation
      JOINT rShin
      {
        OFFSET 0 -36.8199 0.73152
        CHANNELS 3 Zrotation Xrotation Yrotation
        JOINT rFoot
        {
          OFFSET 0.73152 -45.1104 -5.12064
          CHANNELS 3 Zrotation Xrotation Yrotation
          End Site
          {
            OFFSET -1.1221 -3.69964 12.103
          }
        }
      }
    }
  }
  JOINT lButtock
  {
    OFFSET 8.77824 4.35084 1.2192
    CHANNELS 3 Zrotation Xrotation Yrotation
    JOINT lThigh
    {
      OFFSET 0 -1.70687 -2.19456
      CHANNELS 3 Zrotation Xrotation Yrotation
      JOINT lShin
      {
        OFFSET 0 -36.8199 0.73152
        CHANNELS 3 Zrotation Xrotation Yrotation
        JOINT lFoot
        {
          OFFSET -0.73152 -45.1104 -5.12064
          CHANNELS 3 Zrotation Xrotation Yrotation
          End Site
          {
            OFFSET 1.1221 -3.69964 12.103
          }
        }
      }
    }
  }
}
MOTION
Frames:	9
Frame Time:	0.00833333
-8.1005 84.6734 -263.202 0.0 0.0 0.0 -0.533512 -0.00266527 -0.015248 -0.147217 -0.00411041 -0.025507 -1.96882e-15 -7.95139e-16 -2.48481e-17 -6.19028e-15 3.18055e-15 -1.19581e-16 -0.0 0.0 0.0 -0.0 0.0 0.0 -1.04494e-15 7.37677e-18 9.93923e-17 -1.95184e-14 1.61513e-16 5.96354e-16 -3.85096e-13 1.1947e-13 9.54166e-15 -4.40396e-12 -9.36773e-14 -8.90555e-14 -1.03909e-11 5.48133e-14 -1.78111e-13 -1.79403e-11 8.5875e-14 -3.24417e-13 -1.03833e-11 5.64548e-14 -1.90833e-13 7.73091 5.47488 0.417314 -1.03889e-11 5.50634e-14 -1.81292e-13 2.90554 0.965183 0.102902 -1.03757e-11 5.52621e-14 -1.88448e-13 10.2786 0.731801 0.0259123 -1.03923e-11 5.48646e-14 -1.94014e-13 2.22167 -0.733487 -0.20892 -1.04236e-15 5.82377e-18 -9.93923e-17 -2.50194e-14 3.54085e-16 -1.39149e-15 -3.85543e-13 -1.08934e-13 -9.54166e-15 -4.41416e-12 1.46827e-13 -8.5875e-14 -1.04075e-11 7.66483e-14 -2.06736e-13 -1.79717e-11 1.36764e-13 -3.26802e-13 -1.04163e-11 8.11041e-14 -1.90833e-13 -7.73091 5.47488 -0.417314 -1.04088e-11 7.66315e-14 -2.00375e-13 -2.90554 0.965183 -0.102902 -1.04197e-11 7.74266e-14 -1.91628e-13 -10.2786 0.731801 -0.0259123 -1.04064e-11 7.71284e-14 -1.94014e-13 -2.22167 -0.733487 0.20892 -2.03217e-16 0.0 -3.88251e-19 0.094524 -2.38716 -0.0232783 -0.00799119 -1.22788 -0.0686771 -0.498325 3.61504 0.130477 2.03217e-16 0.0 3.88251e-19 -0.906504 -4.44109 0.075277 0.00224348 2.49245 0.0119077 0.505301 1.94872 -0.0973757
-8.14845 81.0417 -267.975 -0.0635 3.7841 18.7853 1.01077 -5.46728 0.229805 0.164898 1.05352 -0.00894132 0.822065 4.64672 -0.284426 -2.74902 -6.56279 -1.13059 -0.0 0.0 0.0 -0.0 0.0 0.0 -9.976e-15 1.17089e-13 1.59191e-14 22.4881 1.42792 -0.2385 -3.45657 -1.44284 5.53133 4.5092e-05 0.445913 0.0626641 -9.52415e-11 1.05584e-09 -1.3561e-09 -1.68179e-10 1.82798e-09 -2.34388e-09 -9.52356e-11 1.05584e-09 -1.35611e-09 7.73091 5.47488 0.417314 -9.52406e-11 1.05584e-09 -1.3561e-09 2.90554 0.965183 0.102902 -9.52297e-11 1.05584e-09 -1.3561e-09 10.2786 0.731801 0.0259123 -9.52424e-11 1.05584e-09 -1.3561e-09 2.22167 -0.733487 -0.20892 -9.97767e-15 1.17088e-13 1.57362e-14 -22.1023 6.56153 1.2821 3.31631 -1.36147 -5.32844 -0.012371 2.68536 -0.376455 -8.55068e-10 1.99515e-10 1.20568e-09 -1.46682e-09 3.52275e-10 2.09205e-09 -8.55076e-10 1.99519e-10 1.2057e-09 -7.73091 5.47488 -0.417314 -8.55068e-10 1.99514e-10 1.20568e-09 -2.90554 0.965183 -0.102902 -8.55078e-10 1.99514e-10 1.20569e-09 -10.2786 0.731801 -0.0259123 -8.55064e-10 1.99515e-10 1.20569e-09 -2.22167 -0.733487 0.20892 -2.03217e-16 0.0 -3.88251e-19 1.29259 -11.6956 -0.828993 -0.00642603 9.48646 0.0623413 -0.442475 -2.36154 0.43648 2.03217e-16 0.0 3.88251e-19 -0.579604 -15.846 1.39515 0.0239487 21.1953 -0.239574 0.551182 2.03865 0.361143
-7.99865 81.3141 -266.316 -0.2345 2.0813 18.2711 2.70557 -11.2358 0.474971 0.497543 2.18771 0.00241434 1.73822 9.564 -0.590888 -5.953 -13.5094 -2.37831 -0.0 0.0 0.0 -0.0 0.0 0.0 -2.01255e-14 2.45401e-13 3.22217e-14 46.2874 2.83816 -0.542317 -6.7781 -2.90274 11.3422 -0.00123406 0.96576 0.135733 -1.73051e-10 2.19764e-09 -2.88145e-09 -3.0658e-10 3.80475e-09 -4.98042e-09 -1.73046e-10 2.19764e-09 -2.88146e-09 7.73091 5.47488 0.417314 -1.73051e-10 2.19764e-09 -2.88145e-09 2.90554 0.965183 0.102902 -1.73042e-10 2.19764e-09 -2.88146e-09 10.2786 0.731801 0.0259123 -1.73051e-10 2.19764e-09 -2.88145e-09 2.22167 -0.733487 -0.20892 -2.01297e-14 2.45401e-13 3.20571e-14 -45.7857 13.5515 2.64873 6.5793 -2.77946 -11.0231 0.0142618 5.40066 -0.760255 -1.7954e-09 4.24975e-10 2.55152e-09 -3.07971e-09 7.50241e-10 4.42731e-09 -1.79541e-09 4.24978e-10 2.55154e-09 -7.73091 5.47488 -0.417314 -1.7954e-09 4.24971e-10 2.55152e-09 -2.90554 0.965183 -0.102902 -1.79541e-09 4.24971e-10 2.55153e-09 -10.2786 0.731801 -0.0259123 -1.79539e-09 4.24973e-10 2.55152e-09 -2.22167 -0.733487 0.20892 -2.03217e-16 0.0 -3.88251e-19 2.2546 -21.5675 -1.75176 -0.061803 20.8249 0.211358 -0.317951 -8.64198 0.748498 2.03217e-16 0.0 3.88251e-19 0.411218 -27.8009 3.01858 0.279581 41.0371 -0.626789 0.593938 2.17315 0.804989
-7.8339 81.5745 -264.577 0.1344 2.4602 17.2831 4.24455 -16.3953 0.747157 0.787293 3.16879 0.0242317 2.60817 13.9388 -0.876277 -9.06445 -19.6567 -3.57832 -0.0 0.0 0.0 -0.0 0.0 0.0 -2.78381e-14 3.51252e-13 4.75585e-14 67.5 4.28347 -0.71728 -9.54507 -4.16742 16.634 -0.00279156 1.33773 0.188038 -2.64943e-10 3.16741e-09 -4.06793e-09 -4.68656e-10 5.48378e-09 -7.031e-09 -2.6494e-10 3.16741e-09 -4.06793e-09 7.73091 5.47488 0.417314 -2.64944e-10 3.16741e-09 -4.06793e-09 2.90554 0.965183 0.102902 -2.64938e-10 3.16741e-09 -4.06793e-09 10.2786 0.731801 0.0259123 -2.64943e-10 3.16741e-09 -4.06792e-09 2.22167 -0.733487 -0.20892 -2.78483e-14 3.51252e-13 4.74074e-14 -67.2335 19.6439 4.05761 9.19867 -3.94335 -16.0197 0.0696405 8.05468 -1.13937 -2.54439e-09 5.98393e-10 3.61745e-09 -4.36452e-09 1.05655e-09 6.2768e-09 -2.5444e-09 5.98396e-10 3.61747e-09 -7.73091 5.47488 -0.417314 -2.54439e-09 5.98388e-10 3.61744e-09 -2.90554 0.965183 -0.102902 -2.54439e-09 5.98388e-10 3.61745e-09 -10.2786 0.731801 -0.0259123 -2.54438e-09 5.9839e-10 3.61745e-09 -2.22167 -0.733487 0.20892 -2.03217e-16 0.0 -3.88251e-19 2.79482 -30.2871 -2.76669 -0.168116 30.9146 0.375075 -0.133804 -14.3125 1.08146 2.03217e-16 0.0 3.88251e-19 2.03947 -38.5644 4.95985 0.943144 58.5947 -1.33171 0.638626 2.21807 1.27834
-7.73658 81.7123 -263.087 0.6385 3.8372 16.5599 5.31089 -20.0327 1.06672 0.970126 3.76714 0.0722069 3.26121 16.9585 -1.08708 -11.347 -23.8361 -4.4788 -0.0 0.0 0.0 -0.0 0.0 0.0 -2.94587e-14 4.00949e-13 6.04802e-14 82.2084 5.81699 -0.567822 -11.4724 -5.08542 20.5932 -0.00220281 1.34003 0.188363 -3.92043e-10 3.70713e-09 -4.4072e-09 -6.89917e-10 6.41847e-09 -7.61669e-09 -3.92041e-10 3.70713e-09 -4.4072e-09 7.73091 5.47488 0.417314 -3.92045e-10 3.70713e-09 -4.40719e-09 2.90554 0.965183 0.102902 -3.9204e-10 3.70713e-09 -4.4072e-09 10.2786 0.731801 0.0259123 -3.92043e-10 3.70713e-09 -4.40718e-09 2.22167 -0.733487 -0.20892 -2.94829e-14 4.00948e-13 6.03311e-14 -82.4569 23.5254 5.37764 10.7606 -4.61665 -19.2359 0.138655 10.5563 -1.50079 -2.81503e-09 6.41709e-10 3.98362e-09 -4.82916e-09 1.13373e-09 6.91187e-09 -2.81504e-09 6.41711e-10 3.98363e-09 -7.73091 5.47488 -0.417314 -2.81503e-09 6.41703e-10 3.9836e-09 -2.90554 0.965183 -0.102902 -2.81503e-09 6.41703e-10 3.98361e-09 -10.2786 0.731801 -0.0259123 -2.81502e-09 6.41705e-10 3.9836e-09 -2.22167 -0.733487 0.20892 -2.03217e-16 0.0 -3.88251e-19 2.92121 -36.1474 -3.72191 -0.283794 37.8829 0.527671 0.0820944 -18.4594 1.4399 2.03217e-16 0.0 3.88251e-19 3.8682 -46.4247 6.94224 2.14204 70.4458 -2.52329 0.694805 2.0393 1.8252
-7.76701 81.6954 -262.0 0.6524 3.7132 16.9017 5.69931 -21.5796 1.49963 0.975087 3.75551 0.174319 3.60403 18.1912 -1.19549 -12.1758 -25.2909 -4.85438 -0.0 0.0 0.0 -0.0 0.0 0.0 -2.13845e-14 3.80133e-13 7.5146e-14 87.8267 7.38551 -0.0597051 -12.4257 -5.58655 22.6155 -0.00238901 0.947531 0.132973 -6.47383e-10 3.79965e-09 -3.38836e-09 -1.13047e-09 6.57931e-09 -5.8539e-09 -6.47381e-10 3.79965e-09 -3.38836e-09 7.73091 5.47488 0.417314 -6.47385e-10 3.79965e-09 -3.38835e-09 2.90554 0.965183 0.102902 -6.47381e-10 3.79965e-09 -3.38836e-09 10.2786 0.731801 0.0259123 -6.47384e-10 3.79965e-09 -3.38834e-09 2.22167 -0.733487 -0.20892 -2.14422e-14 3.80132e-13 7.49803e-14 -88.614 24.394 6.48468 11.0456 -4.68293 -19.893 0.210645 12.8632 -1.83893 -2.44573e-09 4.6727e-10 3.32403e-09 -4.19612e-09 8.28429e-10 5.76838e-09 -2.44574e-09 4.67271e-10 3.32404e-09 -7.73091 5.47488 -0.417314 -2.44573e-09 4.67264e-10 3.32402e-09 -2.90554 0.965183 -0.102902 -2.44573e-09 4.67264e-10 3.32402e-09 -10.2786 0.731801 -0.0259123 -2.44572e-09 4.67266e-10 3.32401e-09 -2.22167 -0.733487 0.20892 -2.03217e-16 0.0 -3.88251e-19 2.9054 -38.0707 -4.30343 -0.338796 40.4939 0.619732 0.277617 -20.4826 1.79823 2.03217e-16 0.0 3.88251e-19 5.06564 -50.3774 8.32345 2.96597 74.4176 -3.34121 0.778234 1.54719 2.47476
-7.866 81.5684 -261.131 0.1233 1.9762 17.8759 5.58091 -21.6308 2.00137 0.856607 3.3117 0.314126 3.71136 18.1424 -1.22509 -11.8924 -24.8061 -4.81346 -0.0 0.0 0.0 -0.0 0.0 0.0 -6.44109e-15 3.08565e-13 9.08135e-14 86.9194 8.98211 0.713705 -12.7477 -5.82611 23.2495 -0.00474844 0.267189 0.0370138 -9.90564e-10 3.56538e-09 -1.40764e-09 -1.72117e-09 6.17463e-09 -2.42782e-09 -9.90561e-10 3.56538e-09 -1.40764e-09 7.73091 5.47488 0.417314 -9.90566e-10 3.56538e-09 -1.40763e-09 2.90554 0.965183 0.102902 -9.90562e-10 3.56538e-09 -1.40763e-09 10.2786 0.731801 0.0259123 -9.90567e-10 3.56538e-09 -1.40762e-09 2.22167 -0.733487 -0.20892 -6.54556e-15 3.08564e-13 9.06179e-14 -88.1611 23.1192 7.37412 10.4478 -4.33171 -18.7216 0.287958 15.0298 -2.16264 -1.61791e-09 1.38988e-10 1.93395e-09 -2.77662e-09 2.52872e-10 3.35823e-09 -1.61792e-09 1.38987e-10 1.93396e-09 -7.73091 5.47488 -0.417314 -1.61791e-09 1.38983e-10 1.93394e-09 -2.90554 0.965183 -0.102902 -1.61792e-09 1.38982e-10 1.93395e-09 -10.2786 0.731801 -0.0259123 -1.61791e-09 1.38985e-10 1.93394e-09 -2.22167 -0.733487 0.20892 -2.03217e-16 0.0 -3.88251e-19 2.92021 -37.1875 -4.52441 -0.324853 39.9921 0.649442 0.43603 -20.9886 2.14694 2.03217e-16 0.0 3.88251e-19 5.40909 -51.5664 8.93117 2.58702 72.7656 -2.97137 0.893579 0.831791 3.19769
-7.80167 81.5646 -259.733 0.3231 2.5494 17.5912 5.20052 -21.0192 2.42325 0.736712 2.81364 0.440841 3.65732 17.4069 -1.19396 -11.1588 -23.5327 -4.55877 -0.0 0.0 0.0 -0.0 0.0 0.0 9.38473e-15 2.03731e-13 9.86818e-14 83.2722 10.7281 1.76056 -12.877 -6.01429 23.4063 -0.0061281 -0.724704 -0.102441 -1.24256e-09 2.95256e-09 6.82616e-10 -2.15363e-09 5.11458e-09 1.1874e-09 -1.24256e-09 2.95257e-09 6.82608e-10 7.73091 5.47488 0.417314 -1.24256e-09 2.95256e-09 6.82623e-10 2.90554 0.965183 0.102902 -1.24256e-09 2.95256e-09 6.82624e-10 10.2786 0.731801 0.0259123 -1.24257e-09 2.95256e-09 6.82636e-10 2.22167 -0.733487 -0.20892 9.24069e-15 2.0373e-13 9.84547e-14 -85.0228 20.9025 8.05452 9.50646 -3.82492 -16.8947 0.373437 17.1104 -2.47978 -5.59093e-10 -1.93854e-10 3.25398e-10 -9.61614e-10 -3.32093e-10 5.66793e-10 -5.59098e-10 -1.93856e-10 3.25406e-10 -7.73091 5.47488 -0.417314 -5.59091e-10 -1.93858e-10 3.25398e-10 -2.90554 0.965183 -0.102902 -5.59099e-10 -1.93858e-10 3.25398e-10 -10.2786 0.731801 -0.0259123 -5.59088e-10 -1.93856e-10 3.2539e-10 -2.22167 -0.733487 0.20892 -2.03217e-16 0.0 -3.88251e-19 2.89413 -35.107 -4.65319 -0.28067 38.2257 0.649186 0.582825 -20.874 2.51086 2.03217e-16 0.0 3.88251e-19 5.21054 -51.5205 9.02972 1.89706 68.7035 -2.29369 1.03301 0.0286633 3.95035
-7.78228 81.5426 -258.411 0.3119 2.5963 17.5375 4.83603 -20.5784 2.62902 0.73283 2.63921 0.503893 3.52044 16.579 -1.12184 -10.6392 -22.6216 -4.29227 -0.0 0.0 0.0 -0.0 0.0 0.0 2.0106e-14 8.31168e-14 8.99501e-14 80.6574 12.7422 3.0937 -13.2217 -6.34325 24.001 -0.00516613 -2.05183 -0.28849 -1.22435e-09 1.90946e-09 2.03005e-09 -2.11946e-09 3.30934e-09 3.51759e-09 -1.22435e-09 1.90947e-09 2.03004e-09 7.73091 5.47488 0.417314 -1.22436e-09 1.90946e-09 2.03006e-09 2.90554 0.965183 0.102902 -1.22435e-09 1.90946e-09 2.03006e-09 10.2786 0.731801 0.0259123 -1.22436e-09 1.90946e-09 2.03007e-09 2.22167 -0.733487 -0.20892 1.99504e-14 8.31157e-14 8.97016e-14 -83.2147 18.9354 8.56259 8.80557 -3.44647 -15.5798 0.472475 19.1596 -2.7989 5.03208e-10 -3.81972e-10 -9.89617e-10 8.57924e-10 -6.65617e-10 -1.72053e-09 5.03205e-10 -3.81975e-10 -9.89611e-10 -7.73091 5.47488 -0.417314 5.03211e-10 -3.81975e-10 -9.89614e-10 -2.90554 0.965183 -0.102902 5.03202e-10 -3.81975e-10 -9.89615e-10 -10.2786 0.731801 -0.0259123 5.03212e-10 -3.81973e-10 -9.89623e-10 -2.22167 -0.733487 0.20892 -2.03217e-16 0.0 -3.88251e-19 2.73305 -33.4348 -4.9686 -0.251717 37.0428 0.655593 0.767545 -21.0348 2.92457 2.03217e-16 0.0 3.88251e-19 4.99028 -51.7497 9.06723 1.51292 65.4478 -1.91438 1.17988 -0.726957 4.68905
